# xmcd
#
# Track frame offsets:
#	150
#	17172
#	44211
#	75825
#	99598
#	146144
#	175904
#	202401
#	225645
#
# Disc length: 3153 seconds
#
# Revision: 1
# Processed by: cddbd v1.5.2PL0 Copyright (c) Steve Scherf et al.
# Submitted via: EasyCDDAExtractor 6.5.5.1
#
DISCID=7c0c4f09
DTITLE=Ben Sinister - Karma Yoga (Alternate Version)
DYEAR=2007
DGENRE=Electronic
TTITLE0=Swimming Many Distant Oceans (Wet Mix)
TTITLE1=Guitarma Yoga (Alternate)
TTITLE2=Five Across The Eyes (Black Eye Mix)
TTITLE3=Sleep Now, Mummified Baby (Eternal Slumber)
TTITLE4=Ad Lucem (The Good Mix)
TTITLE5=Le Grande Haut Monde (Original Version)
TTITLE6=The Age You Live In (21st Century Mix)
TTITLE7=Sonic Love Nexus (The Other Love Nexus)
TTITLE8=Rhythmic B
EXTD=
EXTT0=
EXTT1=
EXTT2=
EXTT3=
EXTT4=
EXTT5=
EXTT6=
EXTT7=
EXTT8=
PLAYORDER=
